<svg xmlns="http://www.w3.org/2000/svg" viewBox="0 0 294.09 147.94"><defs><style>.cls-1{fill:#8e391f;}.cls-2{fill:#d95d30;}.cls-3,.cls-4{font-size:80px;}.cls-3,.cls-4,.cls-5{fill:#231f20;}.cls-3,.cls-5{font-family:Barlow-ExtraLight, Barlow;font-weight:200;}.cls-4{font-family:Barlow-Bold, Barlow;font-weight:700;}.cls-5{font-size:79.72px;}</style></defs><g id="Layer_2" data-name="Layer 2"><g id="Layer_1-2" data-name="Layer 1"><line class="cls-1" x1="0.13" y1="131.08" x2="294.09" y2="131.08"/><path class="cls-2" d="M5.39,136.34H4.17a1.23,1.23,0,0,0,0,.19Z"/><path class="cls-2" d="M6.58,134H6.2a.46.46,0,0,1,.07.16Z"/><path class="cls-2" d="M4.19,136.54c.09.71.6,1.43,0,2.14H1.48c-.68.4,0,.79,0,1.18-.68,0-1.35,0-1.35.19-.44.52.29.86,1.59,1C4.62,138.84,12,138.05,4.19,136.54Z"/><path class="cls-2" d="M9.57,135H6c-.37.45-.87.9-.51,1.34A11.35,11.35,0,0,0,9.57,135Z"/><path class="cls-2" d="M284.43,134.12c0-.12.06-.18.67,0h-.67c0,.11,0,.28-.28.35,2.35-.23,5.1-.44,7.76-.5.35-.21.69-.42,1-.63-6.59.12-13.19.12-18.59,1.16C278.13,134.5,280.75,134.16,284.43,134.12Z"/><path class="cls-2" d="M293.41,132.16h.68C293.48,132,293.42,132,293.41,132.16Z"/><path class="cls-2" d="M175.84,136.58a80.21,80.21,0,0,0-11.26,1.5c7.67-.55,15.53-.83,21.38-1.58Q180.92,136.58,175.84,136.58Z"/><path class="cls-2" d="M146.62,140.66a53.11,53.11,0,0,0,13.16-.78q-6.06.26-12,.49Z"/><path class="cls-2" d="M152.21,139.44a65.58,65.58,0,0,0,12.37-1.36C160.25,138.4,156,138.81,152.21,139.44Z"/><path class="cls-2" d="M243.53,121.47a58.09,58.09,0,0,1,5.91-.88c.47-.27,1.08-.61,1.91-1h-.54c-3.13.36-6.31.68-9.52,1a36,36,0,0,0-3.61.84C239.63,121.42,241.59,121.47,243.53,121.47Z"/><path class="cls-2" d="M249.44,120.59c-3.95,2.34,4.09-.24,0,0Z"/><path class="cls-2" d="M229.83,132.88h-.46L228,133Z"/><path class="cls-2" d="M192.29,127.34c2.66-.08,5.32-.22,8-.41-5.41.21-10.86.41-15.37,1,.67,0,1.34.19,2,.19A20.48,20.48,0,0,1,192.29,127.34Z"/><path class="cls-2" d="M250.86,131.06c-7.33.49-14.52,1.12-21.49,1.82-14.15.07-27.8.54-40.05,2.14-10.79,1.56-29.67,1.17-40.45,4.3,1.15.08,2.27.12,3.34.12-1.58.27-3.08.58-4.47.93-17.81.68-35.29,1.1-53.48,1.1-2.7,0-4.73.59-7.42.59l-8.1.11s0,.09.1.13c-11.11.25-22,.63-33.54,1.28-5.39.19-10.79,0-16.18,0-2,0-2-.79-3.37-1a120.86,120.86,0,0,0-15.51-2.15v-.59a15.33,15.33,0,0,1-2.45,0c2.9-2.2,10.29-3,2.47-4.5h0l1.2-.2h.13s0,0,0,0a11.48,11.48,0,0,0,4.05-1.35H12.09c.22-.27.37-.54.25-.82l.31-.15h1a2,2,0,0,0,.39-.46c3.09-.84,8-1.27,7-2.09-.72-.41-3-.05-5.55.2a3.52,3.52,0,0,0-.52-.2c3.38-.19,0-1.37,2-1.56,2.69,0,5.39-.2,8.08-.2,11,0,20.23-.19,31-.78l1.42-.07c5.23-.24,10.16-.28,15.28-.13-.33.13-.67.26-1,.38a121.54,121.54,0,0,0,12.37-.13c10.12-.78,20.23-1.57,31-1.76,11.31-.16,22.19-.57,33.66-1.22-4.69.43-9.37.83-14.18,1-2.16,0-4.31,0-6.4,0,2.17.07,4.29,0,6.4,0,8.31.08,16.85.32,23.25-1.52.69.17.69.36,1.36.36,4.72,0,9.44.2,13.49-.59,0-.19,2-.19,1.35-.58,4-.2,8.77-.2,12.81-.59a29.47,29.47,0,0,0,5.25-1c14.47-1,28.78-2.11,44.37-3.1,3.88-.19,8.35-.19,12.27-.19-5.77.65-11.72,1.19-17.76,1.68-5.85-.15-11.46-.15-16.08.86-1.07.18-2.14.36-3.22.52,6.51-.43,13-.87,19.3-1.38,3.46.08,7,.21,10.48.22l-.21,0q-4.08.38-8.24.71a82.15,82.15,0,0,0-14.51.57c-.54.09-1.07.18-1.58.3-1.07.18-2.14.36-3.22.52q6-.39,12-.83c2.45-.18,4.9-.36,7.34-.56l4.63.13-.49.15c-1.35.19-5.13,2.49-3.11,3.08,10.38,0,24.95-1,24.95-.78.67.78-17.12,1.81-16.45,2,1,.09,2,.17,3,.23-.94.16-1.87.32-2.72.51-2,.19-4.72,0-6.07.39-4.72,1.17-10.11.78-15.51,1.56-3.37.59-7.41,1.37-11.46,2.16,0,.39-2,.19-1.35.58-3.8,0-8.21,0-9.84,1.14l-.27,0a5.45,5.45,0,0,0-1.06.15c-6.33-.2-10.75.88-16.49,1.64-2,.1-4,.16-6.05.16a37.17,37.17,0,0,0,4.72,0l1.33-.16c5.12-.26,10-.78,14.86-1.21.39-.11,1-.3,1.63-.43l1.06,0a3.23,3.23,0,0,1,.27-.23c4.66-.56,9.92-.76,13.89-1.33,7.48-.67,15.46-.34,23.09-.23q-5.7.49-11.22,1.06c4.6-.34,9-.67,13.16-1h6c-1.26-.09-2.51-.15-3.75-.21,2.51-.22,5-.46,7.45-.72,13.52-.91,27.47-1.39,41.15-1.09a8.72,8.72,0,0,1-.91.71c-6.6.12-13.2.12-18.59,1.16,3.81,0,6.44-.34,10.11-.38,0,.11,0,.27-.27.35,2.35-.23,5.09-.44,7.76-.5-.85.51-1.81,1-2.77,1.51a37.18,37.18,0,0,1-5.4.59c-8.75.34-17,.24-25.61.71-7.68-.07-15.34-.15-22.87-.11C237.31,132.33,244.18,131.76,250.86,131.06ZM24.62,136.17c.69-.08,1.41-.18,2.12-.28l-.32-.14A4.3,4.3,0,0,0,24.62,136.17Zm15.77.19c-4.62-.34-10.72.11-16.61.41a.37.37,0,0,0-.05.15C28.67,137.1,34.75,136.63,40.39,136.36Zm18.5,4.06-.11-.06s0,.06,0,.09ZM141,134.19c-5.39,1-12.14,1-18.88,1.37-2,0-4,.78-6.74.78-3.37.19-5.39.58-8.09.78l2,.39c-4.73-.19-7.43,1-12.14.59,0,.19-.68.58-1.35.58-3.37.2-6.75-.19-9.44.2-3.37.2-6.74.2-9.44.59-.68,0-2,.58-3.37.78-1.65.08-3.29.13-4.94.18l.2.16a39.54,39.54,0,0,0,4.06-.14c4-.4,8.77-.79,12.81-1,10.12-.39,19.56-1.18,29-2,2-.19,4-.59,6.06-.78,6.07-.78,13.49-.59,17.53-2A12.9,12.9,0,0,0,141,134.19Zm7.54-8.49a159.15,159.15,0,0,1-21.7,1c-5.4,0-20.9,1.18-18.2,3.52C115.36,126,153.27,130.19,148.58,125.7Zm56.24-3.59a76.66,76.66,0,0,1-8.76.58Zm-28.72,8c8.77-1.37,18.2-1.57,27-2.35,6.74-.59,14.16.39,20.22-1v-.58l-.67.19c-2.36-.11-4.27-.43-6.26-.59l.35,0-.6,0a24.54,24.54,0,0,0-4.28,0l-2.21.28c-8.42.34-17.12.65-24.75,1.88-4.72.58-8.77,1.56-13.49,2.15A39.12,39.12,0,0,0,176.1,130.08Z"/><path class="cls-2" d="M238.42,130.6c2.91-.24,5.85-.47,8.81-.67q3.42-.36,6.82-.78c10.82-1.05,23.46-.7,35.09-1.17a1.52,1.52,0,0,0,0-1.77c-12.62-.63-25.24.42-37.86.09l-.3.06c-5.4,1.17-14.16.78-20.9,1.76-6.75,1.18-13.49,1.57-20.23,2.55C219.56,130.67,228.82,130.24,238.42,130.6Z"/><path class="cls-2" d="M159.78,139.88l8-.36c7.44-.47,14.05-1.05,20.81-1.76-5,.1-9.95.17-15,.17C168.56,138.13,164.29,139.12,159.78,139.88Z"/><path class="cls-2" d="M194,137.17c-1.85.21-3.67.4-5.48.59,7.35-.15,14.65-.39,21.93-.64,12-.8,23.94-1.49,35.91-2.52,1.36-.11,2.71-.19,4-.26-22.27-.23-44.48-.45-63.39,2l-1.1.14c9-.13,17.9-.41,26.77-.72C206.5,136.19,200.27,136.63,194,137.17Z"/><path class="cls-2" d="M235.6,130.83l1.94,0,2.24-.2-1.36-.05Z"/><path class="cls-2" d="M216.36,125.77l-.25,0c-2.13.11-4.3.21-6.49.3-3,.35-6.16.65-9.38.88A149,149,0,0,0,216.36,125.77Z"/><path class="cls-2" d="M197.68,121.08H195l-1.23.35,1.91,0Z"/><path class="cls-2" d="M157.88,124.24c12-.76,23.15-1.56,34.26-2.36l1.61-.45a128,128,0,0,0-21.7,1.21,38.58,38.58,0,0,1-4.71.79c-6.39.18-12.46.8-18.53,1.37,2.9-.17,5.83-.34,8.82-.54Z"/><text class="cls-3" transform="translate(59.6 68)">WIL</text><text class="cls-4" transform="translate(30.05 129.94)">SOULS</text><text class="cls-5" transform="translate(190.12 67.94)">D</text></g></g></svg>